/* XPM */
static char *_e33e70d6758442dd57f4ec64013f48eZN2JXBiJrtujXQ0L[] = {
/* columns rows colors chars-per-pixel */
"50 50 15 1 ",
"  c #191919",
". c #C9CCCC",
"X c #1E1E1E",
"o c #D4D6D6",
"O c #232323",
"+ c #D9DBDB",
"@ c #111111",
"# c #B3B7B7",
"$ c #7A2879",
"% c #B7AEA1",
"& c #C5C9C9",
"* c #AF60AE",
"= c #AFA69A",
"- c #AAA196",
"; c white",
/* pixels */
"                         .........................",
"                         .........................",
"                         .........................",
"                         .........................",
"                         .........................",
"                         .........................",
"      XXXXXXXXXXXXXXXXXXXoooooooooooooooooo.......",
"      XXXXXXXXXXXXXXXXXXXoooooooooooooooooo.......",
"      XXXXXXXXXXXXXXXXXXXoooooooooooooooooo.......",
"      XXXXXXXXXXXXXXXXXXXoooooooooooooooooo.......",
"      XXXXXXXXXXXXXXXXXXXoooooooooooooooooo.......",
"      XXXXXXXXXXXXXXXXXXXoooooooooooooooooo.......",
"      XXXXXXOOOOOOOOOOOOO++++++++++++oooooo.......",
"      XXXXXXOOOOOOOOOOOOO++++++++++++oooooo.......",
"      XXXXXXOOOOOOOOOOOOO++++++++++++oooooo.......",
"      XXXXXXOOOOOOOOOOOOO++++++++++++oooooo.......",
"      XXXXXXOOOOOOOOOOOOO++++++++++++oooooo.......",
"      XXXXXXOOOOOOOOOOOOO++++++++++++oooooo.......",
"      XXXXXXOOOOOOOOOOOOO++++++++++++oooooo.......",
"      XXXXXXOOOOOOOOOOOOO++++++++++++oooooo.......",
"      XXXXXXOOOOOOOOOOOOO++++++++++++oooooo.......",
"      XXXXXXOOOOOOOOOOOOO++++++++++++oooooo.......",
"      XXXXXXOOOOOOOOOOOOO++++++++++++oooooo.......",
"      XXXXXXOOOOOOOOOOOOO++++++++++++oooooo.......",
"      XXXXXXOOOOOOOOOOOOO++++++++++++oooooo.......",
"      XXXXXX@@@@@@OOOOOOO++++++@@@@@@oooooo.......",
"      XXXXXX@@@@@@OOOOOOO++++++@@@@@@oooooo.......",
"      XXXXXX@@@@@@OOOOOOO++++++@@@@@@oooooo.......",
"      XXXXXX@@@@@@OOOOOOO++++++@@@@@@oooooo.......",
"      XXXXXX@@@@@@OOOOOOO++++++@@@@@@oooooo.......",
"      XXXXXX@@@@@@OOOOOOO++++++@@@@@@oooooo.......",
"      ######$$$$$$%%%%%%%++++++$$$$$$######.......",
"      ######$$$$$$%%%%%%%++++++$$$$$$######.......",
"      ######$$$$$$%%%%%%%++++++$$$$$$######.......",
"      ######$$$$$$%%%%%%%++++++$$$$$$######.......",
"      ######$$$$$$%%%%%%%++++++$$$$$$######.......",
"      ######$$$$$$%%%%%%%++++++$$$$$$######.......",
"      &&&&&&******=============******&&&&&&.......",
"      &&&&&&******=============******&&&&&&.......",
"      &&&&&&******=============******&&&&&&.......",
"      &&&&&&******=============******&&&&&&.......",
"      &&&&&&******=============******&&&&&&.......",
"      &&&&&&******=============******&&&&&&.......",
"------------======%%%%%%%%%%%%%-------------------",
"------------======%%%%%%%%%%%%%-------------------",
"------------======%%%%%%%%%%%%%-------------------",
"------------======%%%%%%%%%%%%%-------------------",
"------------======%%%%%%%%%%%%%-------------------",
"------------======%%%%%%%%%%%%%-------------------",
"------------======%%%%%%%%%%%%%-------------------"
};
